<?xml version="1.0" encoding="UTF-8"?>
<svg width="800px" height="600px" viewBox="0 0 800 600" version="1.1" xmlns="http://www.w3.org/2000/svg" xmlns:xlink="http://www.w3.org/1999/xlink">
    <!-- Generator: Sketch 41 (35326) - http://www.bohemiancoding.com/sketch -->
    <title>archivo-terminal-g</title>
    <desc>Created with Sketch.</desc>
    <defs></defs>
    <g id="Page-1" stroke="none" stroke-width="1" fill="none" fill-rule="evenodd">
        <g id="archivo-terminal-g" fill="#000000">
            <path d="M316.024952,838.304 L682.243762,838.304 C891.264875,838.304 969,698.336 969,575.648 C969,459.872 887.809981,354.464 737.522073,354.464 L373.03071,354.464 C307.387716,354.464 276.293666,321.632 276.293666,280.16 C276.293666,238.688 307.387716,205.856 373.03071,205.856 L518.136276,205.856 C744.431862,205.856 887.809981,95.264 887.809981,-100 C887.809981,-188.128 851.533589,-260.704 791.072937,-314.272 C898.174664,-338.464 967.272553,-423.136 967.272553,-532 L822.166987,-532 C811.802303,-474.976 780.708253,-417.952 690.880998,-374.752 C639.057582,-395.488 580.324376,-405.856 518.136276,-405.856 C291.840691,-405.856 150.190019,-295.264 150.190019,-100 C150.190019,0.224 200.285988,81.44 272.838772,135.008 C224.47025,147.104 120.823417,183.392 120.823417,285.344 C120.823417,351.008 165.737044,397.664 215.833013,425.312 C162.28215,444.32 69,489.248 69,618.848 C69,791.648 205.46833,838.304 316.024952,838.304 Z M519.863724,88.352 C374.758157,88.352 302.205374,19.232 302.205374,-100 C302.205374,-219.232 374.758157,-288.352 519.863724,-288.352 C664.96929,-288.352 737.522073,-219.232 737.522073,-100 C737.522073,19.232 664.96929,88.352 519.863724,88.352 Z M329.84453,715.616 C264.201536,715.616 221.015355,670.688 221.015355,601.568 C221.015355,530.72 264.201536,489.248 329.84453,489.248 L708.15547,489.248 C773.798464,489.248 818.712092,530.72 818.712092,601.568 C818.712092,670.688 761.706334,715.616 685.698656,715.616 L329.84453,715.616 Z" id="g"></path>
        </g>
    </g>
</svg>