<?xml version="1.0" encoding="UTF-8"?>
<svg width="800px" height="600px" viewBox="0 0 800 600" version="1.1" xmlns="http://www.w3.org/2000/svg" xmlns:xlink="http://www.w3.org/1999/xlink">
    <!-- Generator: Sketch 41 (35326) - http://www.bohemiancoding.com/sketch -->
    <title>archivo-terminal-a</title>
    <desc>Created with Sketch.</desc>
    <defs></defs>
    <g id="Page-1" stroke="none" stroke-width="1" fill="none" fill-rule="evenodd">
        <g id="archivo-terminal-a" fill="#000000">
            <path d="M411.696498,864.4 C548.178988,864.4 648.381323,814.288 710.575875,733.072 L722.669261,733.072 C739.945525,810.832 800.412451,859.216 883.338521,859.216 C943.805447,859.216 985.268482,847.12 1006,836.752 L1006,717.52 L943.805447,717.52 C912.708171,717.52 883.338521,700.24 883.338521,657.04 L883.338521,192.208 C883.338521,17.68 767.587549,-86 529.175097,-86 C311.494163,-86 161.190661,3.856 161.190661,166.288 C161.190661,181.84 161.190661,193.936 162.918288,204.304 L335.680934,204.304 L335.680934,181.84 C335.680934,123.088 373.688716,57.424 522.264591,57.424 C672.568093,57.424 705.392996,121.36 705.392996,209.488 L705.392996,299.344 C363.322957,299.344 118,359.824 118,608.656 C118,828.112 302.856031,864.4 411.696498,864.4 Z M463.525292,719.248 C358.140078,719.248 301.128405,682.96 301.128405,594.832 C301.128405,461.776 472.163424,434.128 705.392996,434.128 L705.392996,489.424 C705.392996,636.304 594.824903,719.248 463.525292,719.248 Z" id="a"></path>
        </g>
    </g>
</svg>