<?xml version="1.0" encoding="utf-8"?>
<!-- Generator: Adobe Illustrator 18.0.0, SVG Export Plug-In . SVG Version: 6.00 Build 0)  -->
<!DOCTYPE svg PUBLIC "-//W3C//DTD SVG 1.1//EN" "http://www.w3.org/Graphics/SVG/1.1/DTD/svg11.dtd">
<svg version="1.1" id="Layer_1" xmlns="http://www.w3.org/2000/svg" xmlns:xlink="http://www.w3.org/1999/xlink" x="0px" y="0px"
	 viewBox="0 0 800 600" enable-background="new 0 0 800 600" xml:space="preserve">
	<path fill="none" d="M122,280c-50.8,0-95,12.4-122,56.7V600h244.8c18.2-28.4,29.2-70,29.2-130C274,314,204,280,122,280z"/>
	<path d="M122,280c82,0,152,34,152,190c0,60-10.9,101.6-29.2,130h203.1c11.9-38.3,18.1-81.1,18.1-128c0-66-16-126-42-170l4-4
		c24,4,56,4,92,4c30,0,42-20,42-68v-28c0-50-14-72-46-72H234c-36-8-72-14-110-14c-45.1,0-86.6,5.7-124,16.8v199.9
		C27,292.4,71.2,280,122,280z"/>
	<path fill="#FFFFFF" stroke="#000000" stroke-miterlimit="10" d="M-0.1,600c0,0,0.1,0.1,0.1,0.1L-0.1,600L-0.1,600z"/>
</svg>
