<svg xmlns="http://www.w3.org/2000/svg" width="400" height="400" viewBox="0 0 400 400">
  <path fill="#000000" fill-rule="evenodd" d="M200.033879,40 C191.034671,40 183.102678,45.5053763 183.102678,53.7634409 C183.102678,56.8315412 183.794924,68.2150538 184.141048,75.4408602 C184.487171,82.6666667 187.948405,85.0752688 188.986775,85.7634409 L188.986775,87.827957 C188.986775,95.7419355 183.448801,102.27957 173.757347,104 C163.633239,105.777778 160.114318,111.225806 159.075948,118.451613 C155.383965,151.25448 148,212.272401 148,217.290323 C148,221.103943 152.15348,224.086022 157.691454,224.086022 C156.105055,235.268817 154.5475,244.014337 154.5475,245.792115 C154.5475,249.261649 159.306697,249.892473 166.344538,249.892473 L170.151895,352.430108 C170.498019,357.591398 174.305376,360 182.64118,360 C190.976984,360 196.514958,357.247312 196.514958,352.430108 L196.514958,249.892473 L203.177833,249.892473 L203.177833,352.430108 C203.177833,357.247312 208.34084,360 216.6478,360 C225.300884,360 229.079398,357.591398 229.425521,352.430108 L233.579001,249.892473 C240.847592,249.892473 245.347196,249.519713 245.347196,245.419355 C245.347196,243.870968 243.933859,233.949821 242.578209,224.086022 C248.116183,224.086022 252.269663,220.78853 252.269663,217.318996 C252.269663,212.301075 244.885698,151.25448 241.193715,118.451613 C240.155345,111.225806 236.636424,105.72043 226.656534,104 C216.618957,102.27957 210.734859,95.7419355 210.734859,87.827957 L210.734859,85.7634409 C212.119353,85.0752688 215.580587,82.6666667 215.92671,75.4408602 C216.272833,68.2150538 216.96508,56.8315412 216.96508,53.7634409 C216.96508,45.5053763 209.033086,40 200.033879,40 Z"/>
</svg>
