<svg xmlns="http://www.w3.org/2000/svg" width="400" height="400" viewBox="0 0 400 400">
  <path fill-rule="evenodd" d="M94.3236226,3.13464151 C92.9470189,0.725584906 91.5704151,0.00860377358 90.1938113,0.00860377358 C88.8172075,0.00860377358 87.4119245,0.725584906 86.0353208,3.13464151 L62.3462642,44.6335094 C61.0843774,46.8131321 60.2526792,48.8780377 60.2526792,50.2546415 C60.2526792,51.9753962 61.2851321,53.352 65.0707925,53.352 L115.288151,53.352 C118.414189,53.352 120.479094,51.9753962 120.479094,49.9104906 C120.479094,48.8780377 120.134943,48.1897358 119.102491,46.4689811 L94.3236226,3.13464151 Z M154.865509,50.2546415 L179.644377,6.92030189 C180.67683,5.19954717 181.020981,4.51124528 181.020981,3.47879245 C181.020981,1.41388679 178.956075,0.0372830189 175.858717,0.0372830189 L125.641358,0.0372830189 C121.855698,0.0372830189 120.823245,1.41388679 120.823245,3.13464151 C120.823245,4.51124528 121.167396,5.88784906 121.855698,6.92030189 L146.605887,50.2546415 C147.982491,52.6636981 149.359094,53.3806792 150.735698,53.3806792 C152.112302,53.3806792 153.488906,52.6636981 154.865509,50.2546415 L154.865509,50.2546415 Z M226.821736,78.8478491 L13.7923019,78.8478491 C4.15607547,78.8478491 0.0262641509,82.9776604 0.0262641509,92.5852075 L0.0262641509,305.958792 C0.0262641509,315.595019 4.15607547,319.72483 13.7923019,319.72483 L226.821736,319.72483 C236.429283,319.72483 240.559094,315.595019 240.559094,305.958792 L240.559094,92.5852075 C240.559094,82.9776604 236.429283,78.8478491 226.821736,78.8478491 L226.821736,78.8478491 Z M26.4685283,296.351245 L214.088151,296.351245 L214.088151,104.601811 L26.4685283,104.601811 L26.4685283,296.351245 Z M64.7266415,120.117283 C60.2526792,120.117283 56.1228679,122.870491 56.1228679,127.000302 C56.1228679,128.262189 56.5817358,134.68634 56.8111698,138.013132 C57.0119245,141.339925 58.0443774,142.315019 59.1915472,143.204075 L59.1915472,144.236528 C59.1915472,148.36634 56.4670189,151.807849 51.6489057,152.496151 C46.5153208,153.241811 44.7658868,156.281811 44.4217358,159.723321 C42.4715472,176.357283 38.5711698,207.015396 38.5711698,209.625208 C38.5711698,211.690113 40.6360755,213.410868 43.733434,213.410868 C42.9304151,218.228981 42.0126792,223.018415 42.0126792,224.079547 C42.0126792,225.800302 44.4217358,226.144453 47.8632453,226.144453 L49.9281509,278.082566 C49.9281509,280.835774 51.9930566,281.868226 56.1228679,281.868226 C60.224,281.868226 62.9772075,280.491623 62.9772075,278.082566 L62.9772075,226.144453 L66.418717,226.144453 L66.4473962,278.053887 C66.4473962,280.462943 68.8564528,281.896906 72.9862642,281.896906 C77.4315472,281.896906 79.4964528,280.807094 79.4964528,278.053887 L81.5613585,226.144453 C85.0889057,226.115774 87.4406038,225.800302 87.4406038,224.36634 C87.4406038,223.764075 86.7236226,217.856151 86.0353208,213.382189 C88.7885283,213.382189 91.1975849,211.661434 91.1975849,209.596528 C91.1975849,206.958038 87.2972075,176.328604 85.3470189,159.694642 C85.0028679,156.253132 83.2821132,153.155774 78.1198491,152.467472 C72.9575849,151.77917 70.2043774,148.33766 70.2043774,144.207849 L70.2043774,143.175396 C70.8926792,142.831245 72.3553208,141.770113 72.613434,138.013132 C72.8428679,134.68634 73.3017358,128.262189 73.3017358,127.000302 C73.3017358,122.89917 69.1719245,120.145962 64.7266415,120.145962 L64.7266415,120.117283 Z M131.491925,212.378415 C112.936453,213.984453 98.7975849,228.668226 98.7975849,247.108981 C98.7975849,266.410113 114.599849,281.868226 133.55683,281.868226 C152.829283,281.868226 168.631547,266.410113 168.631547,247.108981 C168.631547,245.904453 168.373434,243.753509 167.943245,241.229736 L176.89117,241.229736 L193.066264,272.547472 C193.410415,273.235774 194.442868,273.579925 195.13117,273.579925 C196.880604,273.579925 201.067774,271.601057 202.35834,270.482566 C202.931925,269.995019 203.390792,269.622189 203.390792,268.790491 C203.390792,268.102189 202.702491,266.381434 201.325887,262.939925 L186.527396,228.89766 C184.806642,224.767849 182.397585,223.735396 178.267774,223.735396 L163.067774,223.735396 L156.270792,195.170868 C154.779472,189.00483 153.144755,186.222943 150.391547,184.158038 C147.982491,181.748981 146.605887,179.684075 146.605887,175.898415 L146.605887,174.521811 C147.294189,174.17766 150.047396,172.112755 150.047396,169.359547 L150.047396,158.002566 C150.047396,153.872755 145.573434,150.775396 141.472302,150.775396 C137.342491,150.775396 132.868528,153.872755 132.868528,158.002566 L132.868528,169.015396 C132.868528,172.801057 135.277585,174.17766 135.965887,174.521811 L135.965887,177.61917 C135.965887,180.716528 134.159094,185.133132 132.925887,188.144453 C131.061736,192.704453 131.147774,197.321811 131.147774,204.118792 C131.147774,205.810868 131.377208,209.625208 131.491925,212.378415 L131.491925,212.378415 Z M131.491925,218.544453 L131.491925,234.031245 C131.491925,237.816906 134.245132,241.258415 139.063245,241.258415 L161.433057,241.258415 C162.121358,243.323321 162.121358,245.044075 162.121358,247.108981 C162.121358,262.968604 149.387774,275.702189 133.55683,275.702189 C117.697208,275.702189 104.963623,262.968604 104.963623,247.108981 C104.963623,232.654642 114.944,220.609358 131.491925,218.544453 L131.491925,218.544453 Z" transform="translate(82 40)"/>
</svg>
