<svg xmlns="http://www.w3.org/2000/svg" width="400" height="400" viewBox="0 0 400 400">
  <path fill="#221F20" fill-rule="evenodd" d="M131.22816,5.80027972 L131.22816,12.245035 L143.48544,12.245035 C152.19456,12.245035 156.06528,15.4674126 156.06528,19.9787413 L156.06528,246.162797 C156.06528,252.580699 152.83968,255.480839 146.71104,255.480839 L12.25728,255.480839 C2.90304,255.480839 0,252.580699 0,246.162797 L0,19.9787413 C0,15.4674126 3.54816,12.245035 12.25728,12.245035 L103.2192,12.245035 L103.2192,5.80027972 C103.2192,3.22237762 104.80512,0 108.67584,0 L125.74464,0 C129.61536,0 131.22816,3.22237762 131.22816,5.80027972 L131.22816,5.80027972 Z M25.1328,152.740699 L131.22816,152.740699 L131.22816,37.3795804 L25.1328,37.3795804 L25.1328,152.740699 Z M47.68512,171.752727 L30.61632,171.752727 C26.7456,171.752727 25.15968,172.397203 25.15968,174.975105 L25.15968,181.070769 C25.15968,183.648671 26.7456,184.266294 30.61632,184.266294 L47.68512,184.266294 C51.55584,184.266294 53.16864,183.648671 53.16864,181.070769 L53.16864,174.975105 C53.16864,172.397203 51.55584,171.752727 47.68512,171.752727 L47.68512,171.752727 Z M86.71488,171.752727 L69.64608,171.752727 C65.77536,171.752727 64.18944,172.397203 64.18944,174.975105 L64.18944,181.070769 C64.18944,183.648671 65.77536,184.266294 69.64608,184.266294 L86.71488,184.266294 C90.5856,184.266294 92.1984,183.648671 92.1984,181.070769 L92.1984,174.975105 C92.1984,172.397203 90.5856,171.752727 86.71488,171.752727 L86.71488,171.752727 Z M125.74464,171.752727 L108.67584,171.752727 C104.80512,171.752727 103.2192,172.397203 103.2192,174.975105 L103.2192,181.070769 C103.2192,183.648671 104.80512,184.266294 108.67584,184.266294 L125.74464,184.266294 C129.61536,184.266294 131.22816,183.648671 131.22816,181.070769 L131.22816,174.975105 C131.22816,172.397203 129.61536,171.752727 125.74464,171.752727 L125.74464,171.752727 Z M47.68512,196.565035 L30.61632,196.565035 C26.7456,196.565035 25.15968,197.20951 25.15968,199.787413 L25.15968,205.883077 C25.15968,208.460979 26.7456,209.078601 30.61632,209.078601 L47.68512,209.078601 C51.55584,209.078601 53.16864,208.460979 53.16864,205.883077 L53.16864,199.787413 C53.16864,197.20951 51.55584,196.565035 47.68512,196.565035 L47.68512,196.565035 Z M86.71488,196.565035 L69.64608,196.565035 C65.77536,196.565035 64.18944,197.20951 64.18944,199.787413 L64.18944,205.883077 C64.18944,208.460979 65.77536,209.078601 69.64608,209.078601 L86.71488,209.078601 C90.5856,209.078601 92.1984,208.460979 92.1984,205.883077 L92.1984,199.787413 C92.1984,197.20951 90.5856,196.565035 86.71488,196.565035 L86.71488,196.565035 Z M125.74464,196.565035 L108.67584,196.565035 C104.80512,196.565035 103.2192,197.20951 103.2192,199.787413 L103.2192,205.883077 C103.2192,208.460979 104.80512,209.078601 108.67584,209.078601 L125.74464,209.078601 C129.61536,209.078601 131.22816,208.460979 131.22816,205.883077 L131.22816,199.787413 C131.22816,197.20951 129.61536,196.565035 125.74464,196.565035 L125.74464,196.565035 Z M47.68512,221.377343 L30.61632,221.377343 C26.7456,221.377343 25.15968,222.021818 25.15968,224.59972 L25.15968,230.695385 C25.15968,233.273287 26.7456,233.890909 30.61632,233.890909 L47.68512,233.890909 C51.55584,233.890909 53.16864,233.273287 53.16864,230.695385 L53.16864,224.59972 C53.16864,222.021818 51.55584,221.377343 47.68512,221.377343 L47.68512,221.377343 Z M86.71488,221.377343 L69.64608,221.377343 C65.77536,221.377343 64.18944,222.021818 64.18944,224.59972 L64.18944,230.695385 C64.18944,233.273287 65.77536,233.890909 69.64608,233.890909 L86.71488,233.890909 C90.5856,233.890909 92.1984,233.273287 92.1984,230.695385 L92.1984,224.59972 C92.1984,222.021818 90.5856,221.377343 86.71488,221.377343 L86.71488,221.377343 Z M125.74464,221.377343 L108.67584,221.377343 C104.80512,221.377343 103.2192,222.021818 103.2192,224.59972 L103.2192,230.695385 C103.2192,233.273287 104.80512,233.890909 108.67584,233.890909 L125.74464,233.890909 C129.61536,233.890909 131.22816,233.273287 131.22816,230.695385 L131.22816,224.59972 C131.22816,222.021818 129.61536,221.377343 125.74464,221.377343 L125.74464,221.377343 Z" transform="translate(122 72)"/>
</svg>
