<svg xmlns="http://www.w3.org/2000/svg" width="400" height="400" viewBox="0 0 400 400">
  <path fill="currentColor" fill-rule="evenodd" d="M237.923989,194.48222 L237.923989,170.695372 C237.923989,167.673044 237.588904,162.971643 237.253818,159.92133 L224.213405,12.8346561 C223.543234,4.77511234 222.537977,3.45983958 213.490667,3.45983958 L29.835857,3.45983958 C18.4708718,3.45983958 17.4656151,4.46728255 16.795444,12.8346561 L4.09011652,159.92133 C3.75503096,162.971643 3.4199454,167.673044 3.4199454,170.695372 L3.4199454,194.48222 C3.4199454,197.196719 3.75503096,198.875791 4.39727828,201.562306 L9.45148547,222.382794 L9.45148547,243.539096 C9.45148547,250.563212 14.1147595,253.921356 27.5181819,253.921356 L44.2724598,253.921356 C57.3128729,253.921356 60.998814,250.563212 60.998814,239.509324 L180.345121,239.509324 C180.345121,250.563212 184.673309,253.921356 197.40656,253.921356 L214.83101,253.921356 C226.89409,253.921356 231.892449,250.563212 231.892449,243.539096 L231.892449,222.382794 L236.918733,201.226491 C237.588904,198.875791 237.923989,197.196719 237.923989,194.48222 L237.923989,194.48222 Z M146.473555,29.6253722 C146.473555,32.3398714 144.463042,33.3473143 139.771844,33.3473143 L101.237005,33.3473143 C96.8808926,33.3473143 94.8703793,32.3398714 94.8703793,29.6253722 L94.8703793,23.5807144 C94.8703793,21.2020296 96.8808926,19.8587724 101.237005,19.8587724 L139.771844,19.8587724 C144.463042,19.8587724 146.473555,21.2020296 146.473555,23.5807144 L146.473555,29.6253722 Z M209.497564,170.695372 L30.5060281,170.695372 L38.5480815,50.7536901 L201.092502,50.7536901 L209.497564,170.695372 Z M31.1761992,201.226491 C31.1761992,194.146406 36.5375682,188.773377 43.2392794,188.773377 C50.2760761,188.773377 55.6374451,194.146406 55.6374451,201.226491 C55.6374451,207.942778 50.2760761,213.343791 43.2392794,213.343791 C36.5375682,213.343791 31.1761992,207.942778 31.1761992,201.226491 L31.1761992,201.226491 Z M211.172992,201.226491 C211.172992,207.942778 205.448614,213.343791 198.746903,213.343791 C192.045191,213.343791 186.683823,207.942778 186.683823,201.226491 C186.683823,194.146406 192.045191,188.773377 198.746903,188.773377 C205.448614,188.773377 211.172992,194.146406 211.172992,201.226491 L211.172992,201.226491 Z" transform="translate(79 72)"/>
</svg>
