<svg xmlns="http://www.w3.org/2000/svg" width="400" height="400" viewBox="0 0 400 400">
  <path fill-rule="evenodd" d="M139.985185,0 C217.392593,0 279.97037,62.5777778 279.97037,139.985185 C279.97037,217.425185 217.392593,279.97037 139.985185,279.97037 C62.5777778,279.97037 0,217.425185 0,139.985185 C0,62.5777778 62.5777778,0 139.985185,0 M139.985185,30.8977778 C79.7866667,30.8977778 30.8977778,79.7866667 30.8977778,139.985185 C30.8977778,200.216296 79.7866667,249.105185 139.985185,249.105185 C200.183704,249.105185 249.072593,200.216296 249.072593,139.985185 C249.072593,79.7866667 200.183704,30.8977778 139.985185,30.8977778 M186.527407,65.3155556 L178.705185,65.3155556 C169.351111,65.3155556 165.44,67.6622222 165.44,72.3555556 L165.44,124.373333 L114.53037,124.373333 L114.53037,72.3555556 C114.53037,67.6622222 110.619259,65.3155556 101.265185,65.3155556 L93.442963,65.3155556 C84.0888889,65.3155556 79.7866667,67.6622222 79.7866667,72.3555556 L79.7866667,209.211852 C79.7866667,213.872593 84.0888889,216.251852 93.442963,216.251852 L101.265185,216.251852 C110.619259,216.251852 114.53037,213.872593 114.53037,209.211852 L114.53037,153.674074 L165.44,153.674074 L165.44,209.211852 C165.44,213.872593 169.351111,216.251852 178.705185,216.251852 L186.527407,216.251852 C195.881481,216.251852 200.183704,213.872593 200.183704,209.211852 L200.183704,72.3555556 C200.183704,67.6622222 195.881481,65.3155556 186.527407,65.3155556" transform="translate(60 60)"/>
</svg>
