<svg xmlns="http://www.w3.org/2000/svg" width="800" height="600" viewBox="0 0 800 600">
  <path fill="currentColor" fill-rule="evenodd" d="M442,455 C500,455 608,439 608,379 C608,359 590,261 558,261 C546,261 526,271 496,271 C456,271 432,249 432,169 L432,-421 L538,-421 C572,-421 586,-445 586,-499 L586,-527 C586,-581 572,-605 538,-605 L432,-605 L432,-807 C432,-841 408,-859 354,-859 L316,-859 C262,-859 236,-841 232,-807 L206,-605 L160,-605 C126,-605 112,-581 112,-527 L112,-499 C112,-445 126,-421 160,-421 L206,-421 L206,181 C206,391 324,455 442,455 Z"/>
</svg>
