<svg xmlns="http://www.w3.org/2000/svg" width="400" height="400" viewBox="0 0 400 400">
  <path fill="#221F20" fill-rule="evenodd" d="M133.653333,267.244444 C59.7333333,267.244444 0,207.511111 0,133.591111 C0,59.7022222 59.7333333,0 133.653333,0 C207.511111,0 267.275556,59.7022222 267.275556,133.591111 C267.275556,207.511111 207.511111,267.244444 133.653333,267.244444 L133.653333,267.244444 Z M189.622222,169.804444 C193.728889,166.071111 195.222222,162.711111 195.222222,157.484444 L195.222222,79.8622222 C195.222222,76.16 192.764444,73.5155556 189.248889,73.5155556 L111.253333,73.8888889 C106.4,73.92 102.293333,75.7555556 98.56,79.1155556 L84.3422222,92.9911111 C82.5066667,94.7644444 81.76,95.8844444 81.76,97.0044444 C81.76,98.8711111 84,98.8711111 86.24,98.8711111 L152.32,98.8711111 L67.9466667,182.871111 C66.5466667,184.271111 65.7066667,185.857778 65.7066667,187.351111 C65.7066667,189.995556 67.2,192.204444 70.1866667,195.191111 L73.92,198.924444 C77.6844444,202.688889 79.7688889,203.84 81.9466667,203.84 C83.72,203.84 85.3688889,202.782222 86.9866667,201.164444 L170.613333,117.537778 L169.866667,182.497778 C169.866667,185.64 170.302222,186.604444 171.733333,186.604444 C172.448889,186.604444 173.475556,185.951111 174.72,184.737778 L189.622222,169.804444 Z" transform="translate(66 66)"/>
</svg>
