<svg xmlns="http://www.w3.org/2000/svg" width="590" height="756" viewBox="0 0 590 756">
  <path fill-rule="evenodd" d="M217,626.302139 C217,604.066734 220.457656,583.937256 227.37307,565.913102 C234.288485,547.888947 244.07112,530.875748 256.721269,514.872995 C269.371418,498.870241 284.467036,483.625741 302.008576,469.139037 C319.550116,454.652334 338.778054,439.9974 359.692967,425.173797 C347.211487,410.013293 335.910857,395.526807 325.790738,381.713904 C315.670618,367.901 306.984313,354.172528 299.731561,340.528075 C292.478809,326.883622 286.912827,313.155149 283.033448,299.342246 C279.154069,285.529343 277.214408,271.379752 277.214408,256.893048 C277.214408,228.256541 281.599727,202.820967 290.370497,180.585561 C299.141267,158.350156 311.622561,139.652482 327.814751,124.491979 C344.006942,109.331475 363.403546,97.7928203 386.005146,89.8756684 C408.606745,81.9585166 433.737998,78 461.399657,78 C488.386642,78 512.674563,82.2111878 534.264151,90.6336898 C555.853739,99.0561918 574.238346,110.342175 589.418525,124.491979 C604.598704,138.641782 616.236666,155.149638 624.332762,174.016043 C632.428857,192.882447 636.476844,212.759254 636.476844,233.647059 C636.476844,251.502763 634.031185,267.757948 629.139794,282.413102 C624.248403,297.068255 617.417425,310.880951 608.646655,323.851604 C599.875885,336.822257 589.334253,348.950478 577.021441,360.236631 C564.708629,371.522784 551.299672,382.724543 536.794168,393.842246 L481.133791,434.775401 L645.078902,630.34492 C655.873696,609.794015 664.307002,587.306272 670.379074,562.881016 C676.451145,538.45576 679.487136,512.262172 679.487136,484.299465 L763.989708,484.299465 C763.989708,526.411975 758.929725,565.323351 748.809605,601.034759 C738.689486,636.746168 723.003537,669.08809 701.751286,698.061497 L807,823.893048 L694.667238,823.893048 L645.584906,765.778075 C632.766088,777.232678 618.7668,787.255305 603.586621,795.846257 C588.406442,804.437209 572.63616,811.512004 556.2753,817.070856 C539.914441,822.629707 523.132161,826.840895 505.927959,829.704545 C488.723756,832.568196 471.857144,834 455.327616,834 C418.557849,834 385.414956,828.862351 355.897942,818.586898 C326.380927,808.311446 301.334008,793.993407 280.756432,775.632353 C260.178857,757.271299 244.408574,735.373122 233.445111,709.937166 C222.481649,684.50121 217,656.623146 217,626.302139 Z M455.327616,757.692513 C479.615902,757.692513 503.397825,752.807535 526.674099,743.037433 C549.950374,733.267331 571.539637,719.286187 591.442539,701.093583 L411.811321,486.320856 L390.559177,501.986631 C372.342962,515.462634 357.922009,528.517317 347.295883,541.15107 C336.669758,553.784823 328.658117,565.491925 323.26072,576.272727 C317.863323,587.05353 314.405668,596.739262 312.88765,605.330214 C311.369632,613.921166 310.610635,620.911738 310.610635,626.302139 C310.610635,644.157843 313.562292,661.086818 319.465695,677.089572 C325.369098,693.092326 334.308402,707.07347 346.283877,719.033422 C358.259351,730.993375 373.354969,740.426436 391.571184,747.332888 C409.787398,754.239339 431.03933,757.692513 455.327616,757.692513 Z M370.825043,253.860963 C370.825043,272.390467 376.222359,291.677707 387.017153,311.723262 C397.811946,331.768817 412.317233,352.90898 430.533448,375.144385 L483.663808,337.748663 C494.121264,330.673761 503.482234,323.598966 511.746998,316.524064 C520.011762,309.449162 527.011406,301.869024 532.746141,293.783422 C538.480875,285.697821 542.781861,276.854326 545.649228,267.252674 C548.516595,257.651022 549.950257,246.449262 549.950257,233.647059 C549.950257,223.540056 548.010597,213.770101 544.131218,204.336898 C540.251839,194.903696 534.517191,186.565544 526.927101,179.322193 C519.337012,172.078841 509.976042,166.183178 498.843911,161.635027 C487.71178,157.086876 475.06182,154.812834 460.893654,154.812834 C446.050812,154.812834 433.06352,157.423771 421.931389,162.645722 C410.799258,167.867673 401.438288,175.026692 393.848199,184.122995 C386.25811,193.219297 380.523461,203.747266 376.644082,215.707219 C372.764703,227.667172 370.825043,240.384959 370.825043,253.860963 Z" transform="translate(-217 -78)"/>
</svg>
