<svg xmlns="http://www.w3.org/2000/svg" width="1561" height="2000" viewBox="0 0 1561 2000">
  <path fill="#000000" fill-rule="evenodd" d="M0,1450.53476 C0,1391.71094 9.1472381,1338.45835 27.4419841,1290.7754 C45.7367328,1243.09245 71.6167196,1198.08399 105.082722,1155.74866 C138.548725,1113.41334 178.484222,1073.08397 224.890413,1034.75936 C271.296603,996.434746 322.164164,957.665079 377.494622,918.449198 C344.474833,878.342045 314.578987,840.018008 287.806185,803.475937 C261.033381,766.933862 238.053738,730.615153 218.866563,694.518717 C199.679389,658.42228 184.954569,622.103569 174.691661,585.561497 C164.428754,549.019426 159.297376,511.586646 159.297376,473.262032 C159.297376,397.504077 170.898749,330.214198 194.101844,271.390373 C217.304939,212.56655 250.324235,163.101804 293.160717,122.994653 C335.997201,82.8875 387.310968,52.3619585 447.103561,31.4171122 C506.896151,10.4722661 573.380947,0 646.559939,0 C717.954079,0 782.207839,11.1407085 839.323151,33.4224598 C896.438463,55.7042111 945.074989,85.5613095 985.234193,122.994653 C1025.3934,160.427995 1056.18166,204.099571 1077.5999,254.010696 C1099.01814,303.921817 1109.7271,356.505963 1109.7271,411.764706 C1109.7271,459.002019 1103.2571,502.005153 1090.31692,540.775402 C1077.37673,579.545648 1059.30536,616.087172 1036.10226,650.401069 C1012.89917,684.714966 985.011251,716.800206 952.437675,746.657754 C919.864098,776.515302 884.390667,806.149585 846.016317,835.561497 L698.766643,943.850267 L1132.48387,1461.22995 C1161.04152,1406.86247 1183.35186,1347.37109 1199.41554,1282.75401 C1215.47922,1218.13693 1223.51094,1148.84172 1223.51094,1074.86631 L1447.06272,1074.86631 C1447.06272,1186.27507 1433.67652,1289.21521 1406.90372,1383.68984 C1380.13092,1478.16447 1338.6337,1563.72511 1282.41081,1640.37433 L1560.84656,1973.26203 L1263.66994,1973.26203 L1133.8225,1819.51872 C1099.91029,1849.8219 1062.87513,1876.33679 1022.71593,1899.06417 C982.556725,1921.79156 940.836402,1940.50795 897.553704,1955.2139 C854.271008,1969.91986 809.873442,1981.06057 764.35968,1988.63636 C718.845915,1996.21216 674.225249,2000 630.496339,2000 C533.221823,2000 445.542212,1986.40834 367.454873,1959.2246 C289.367532,1932.04086 223.105841,1894.16245 168.66781,1845.58824 C114.22978,1797.01402 72.509455,1739.08233 43.5055847,1671.79144 C14.5017169,1604.50056 0,1530.74906 0,1450.53476 Z M630.496339,1798.12834 C694.751063,1798.12834 757.666204,1785.20512 819.243648,1759.35829 C880.821095,1733.51146 937.935548,1696.5243 990.588728,1648.39572 L515.373865,1080.2139 L459.151262,1121.65775 C410.960217,1157.30856 372.809548,1191.84475 344.698103,1225.26738 C316.586661,1258.69001 295.391844,1289.66118 281.113016,1318.18182 C266.834188,1346.70246 257.686952,1372.32609 253.671032,1395.05348 C249.655111,1417.78086 247.647183,1436.27444 247.647183,1450.53476 C247.647183,1497.77207 255.455799,1542.55772 271.073267,1584.89305 C286.690735,1627.22838 310.339688,1664.21553 342.020839,1695.85561 C373.701987,1727.4957 413.637484,1752.45089 461.828529,1770.72193 C510.019571,1788.99296 566.241614,1798.12834 630.496339,1798.12834 Z M406.944558,465.240643 C406.944558,514.260495 421.223172,565.284939 449.780828,618.315508 C478.338481,671.346077 516.712257,727.272434 564.903302,786.096257 L705.45981,687.165775 C733.125037,668.449103 757.889508,649.732714 779.753963,631.016042 C801.618418,612.29937 820.135995,592.246095 835.307251,570.855614 C850.478505,549.465135 861.856775,526.069646 869.442402,500.66845 C877.028029,475.267254 880.820786,445.632968 880.820786,411.764706 C880.820786,385.026603 875.68941,359.180161 865.426503,334.224598 C855.163595,309.269037 839.992569,287.210434 819.912966,268.04813 C799.833365,248.885823 775.068894,233.288831 745.618812,221.256685 C716.16873,209.22454 682.703228,203.208556 645.221307,203.208556 C605.954529,203.208556 571.596614,210.115796 542.146532,223.930481 C512.69645,237.745167 487.931979,256.68437 467.852378,280.748664 C447.772778,304.812955 432.601749,332.664725 422.338841,364.304812 C412.075934,395.944899 406.944558,429.589839 406.944558,465.240643 Z"/>
</svg>
