<svg xmlns="http://www.w3.org/2000/svg" width="800" height="600" viewBox="0 0 800 600">
  <path fill="#000000" fill-rule="evenodd" d="M271,321 L279,321 C283,363 301,413 375,413 C483,413 575,373 575,373 L575,297 L433,269 L433,-373 C433,-499 345,-603 171,-603 C63,-603 -237,-519 -237,-353 C-237,-297 -191,-261 -145,-261 C-99,-261 -81,-275 -81,-275 L-51,-459 C-51,-459 3,-475 73,-475 C199,-475 269,-425 269,-307 L269,-157 L89,-131 C-151,-97 -269,5 -269,171 C-269,303 -189,419 15,419 C143,419 249,345 271,321 Z M269,-61 L269,257 C269,257 191,293 91,293 C-29,293 -93,223 -93,141 C-93,13 21,-43 269,-61 Z"/>
</svg>
