<?xml version="1.0" encoding="utf-8"?>
<!-- Generator: Adobe Illustrator 18.0.0, SVG Export Plug-In . SVG Version: 6.00 Build 0)  -->
<!DOCTYPE svg PUBLIC "-//W3C//DTD SVG 1.1//EN" "http://www.w3.org/Graphics/SVG/1.1/DTD/svg11.dtd">
<svg version="1.1" id="Layer_1" xmlns="http://www.w3.org/2000/svg" xmlns:xlink="http://www.w3.org/1999/xlink" x="0px" y="0px"
	 viewBox="0 0 800 600" enable-background="new 0 0 800 600" xml:space="preserve">
<g>
	<path fill="none" d="M-110.6,263c0,65.2,38.1,123.3,110.6,148.5V103.1C-74.9,137.7-110.6,189.1-110.6,263z"/>
	<path fill="none" d="M85.2,424.9c106.5,0,189.5-38.3,189.5-38.3V48C154,56.8,63.1,74,0,103.1v308.4C24.5,420.1,53,424.9,85.2,424.9
		z"/>
	<path fill="none" d="M449.3,0v399.3l151.2,29.8V510c0,0-97.9,42.6-212.9,42.6c-78.8,0-97.9-53.2-102.2-97.9h-8.5
		C253.5,480.2,140.6,559,4.3,559c-1.5,0-2.9,0-4.3,0v41h800V0H449.3z"/>
	<path d="M276.9,454.7h8.5c4.3,44.7,23.4,97.9,102.2,97.9c115,0,212.9-42.6,212.9-42.6v-80.9l-151.2-29.8V0H0v103.1
		C63.1,74,154,56.8,274.7,48v338.5c0,0-83,38.3-189.5,38.3c-32.3,0-60.7-4.8-85.2-13.3V559c1.4,0,2.9,0,4.3,0
		C140.6,559,253.5,480.2,276.9,454.7z"/>
</g>
</svg>
