<?xml version="1.0" encoding="UTF-8"?>
<svg width="800px" height="600px" viewBox="0 0 800 600" version="1.1" xmlns="http://www.w3.org/2000/svg" xmlns:xlink="http://www.w3.org/1999/xlink">
    <!-- Generator: Sketch 41 (35326) - http://www.bohemiancoding.com/sketch -->
    <title>manuale-terminal-a</title>
    <desc>Created with Sketch.</desc>
    <defs></defs>
    <g id="Page-1" stroke="none" stroke-width="1" fill="none" fill-rule="evenodd">
        <g id="manuale-terminal-a" fill="#000000">
            <path d="M394.178082,167.013699 C486.232877,167.013699 508.589041,210.410959 508.589041,277.479452 L508.589041,387.945205 L310.013699,423.452055 C164.041096,449.753425 143,543.123288 143,606.246575 C143,686.465753 191.657534,768 283.712329,768 C369.191781,768 444.150685,735.123288 511.219178,686.465753 C520.424658,735.123288 555.931507,758.794521 598.013699,758.794521 C633.520548,758.794521 684.808219,753.534247 736.09589,737.753425 L736.09589,700.931507 L617.739726,677.260274 L617.739726,239.342466 C617.739726,130.191781 538.835616,96 417.849315,96 C328.424658,96 244.260274,117.041096 170.616438,144.657534 L192.972603,298.520548 L232.424658,298.520548 L263.986301,185.424658 C304.753425,173.589041 354.726027,167.013699 394.178082,167.013699 Z M371.821918,468.164384 L508.589041,445.808219 L508.589041,637.808219 C466.506849,660.164384 403.383562,686.465753 353.410959,686.465753 C298.178082,686.465753 257.410959,661.479452 257.410959,586.520548 C257.410959,533.917808 283.712329,482.630137 371.821918,468.164384 Z" id="a"></path>
        </g>
    </g>
</svg>