<?xml version="1.0" encoding="UTF-8"?>
<svg width="800px" height="600px" viewBox="0 0 800 600" version="1.1" xmlns="http://www.w3.org/2000/svg" xmlns:xlink="http://www.w3.org/1999/xlink">
    <!-- Generator: Sketch 41 (35326) - http://www.bohemiancoding.com/sketch -->
    <title>manuale-terminal-g</title>
    <desc>Created with Sketch.</desc>
    <defs></defs>
    <g id="Page-1" stroke="none" stroke-width="1" fill="none" fill-rule="evenodd">
        <g id="manuale-terminal-g" fill="#000000">
            <path d="M335.521739,1008 C585.330435,1008 689.747826,894.330435 689.747826,792.556522 C689.747826,680.208696 606.478261,655.095652 484.878261,655.095652 L282.652174,655.095652 C253.573913,655.095652 241.678261,631.304348 241.678261,612.8 C241.678261,595.617391 252.252174,575.791304 270.756522,548.034783 C276.043478,550.678261 318.33913,558.608696 363.278261,558.608696 C554.930435,558.608696 621.017391,451.547826 621.017391,335.234783 C621.017391,286.330435 602.513043,229.495652 566.826087,195.130435 L708.252174,195.130435 L708.252174,96 L523.208696,146.226087 C483.556522,125.078261 438.617391,110.53913 373.852174,110.53913 C208.634783,110.53913 126.686957,217.6 126.686957,335.234783 C126.686957,411.895652 146.513043,484.591304 212.6,528.208696 C168.982609,573.147826 128.008696,620.730435 128.008696,665.669565 C128.008696,697.391304 141.226087,727.791304 172.947826,741.008696 C109.504348,789.913043 91,840.13913 91,879.791304 C91,943.234783 122.721739,1008 335.521739,1008 Z M376.495652,489.878261 C287.93913,489.878261 258.86087,429.078261 258.86087,335.234783 C258.86087,244.034783 283.973913,179.269565 372.530435,179.269565 C459.765217,179.269565 491.486957,244.034783 491.486957,335.234783 C491.486957,429.078261 465.052174,489.878261 376.495652,489.878261 Z M343.452174,935.304348 C237.713043,935.304348 208.634783,907.547826 208.634783,850.713043 C208.634783,816.347826 221.852174,784.626087 249.608696,750.26087 L484.878261,750.26087 C543.034783,750.26087 573.434783,759.513043 573.434783,811.06087 C573.434783,883.756522 508.669565,935.304348 343.452174,935.304348 Z" id="g"></path>
        </g>
    </g>
</svg>