<svg xmlns="http://www.w3.org/2000/svg" width="450" height="60" viewBox="0 0 450 60">
  <path fill-rule="evenodd" d="M26.1998532,58.2811662 L29.1918118,58.2811662 L16.2536127,2.64690996 L12.9381991,2.64690996 L0,58.2811662 L2.91109481,58.2811662 L6.87341829,40.7337337 L22.156666,40.7337337 L26.1998532,58.2811662 Z M14.7172015,8.38823582 L21.5097561,37.9843663 L7.52032825,37.9843663 L14.3128828,8.38823582 L14.7172015,8.38823582 Z M57.4132587,58.2811662 L60.3243535,58.2811662 L60.3243535,26.4208509 C60.3243535,7.01355216 59.3539885,2 48.0330643,2 C36.6312763,2 35.6609114,7.01355216 35.6609114,26.4208509 L35.6609114,58.2811662 L38.5720062,58.2811662 L38.5720062,36.1245002 L57.4132587,36.1245002 L57.4132587,58.2811662 Z M57.4132587,23.9949385 L57.4132587,33.3751329 L38.5720062,33.3751329 L38.5720062,23.9949385 C38.5720062,8.54996331 39.1380524,4.74936732 48.0330643,4.74936732 C56.8472124,4.74936732 57.4132587,8.54996331 57.4132587,23.9949385 L57.4132587,23.9949385 Z M94.8531724,33.4559966 L94.8531724,53.914524 C92.9124425,54.3997065 89.3544378,54.7231615 86.7667979,54.7231615 C75.8501924,54.7231615 74.5563725,51.084293 74.5563725,30.4640381 C74.5563725,7.01355216 76.9014211,6.28577846 89.0309828,6.28577846 C91.6186226,6.28577846 96.2278561,6.85182468 99.3815421,7.49873463 L99.3815421,3.53641115 C96.3087198,2.64690996 91.0525764,2 86.8476617,2 C72.6965064,2 69.7854116,6.5283697 69.7854116,30.4640381 C69.7854116,54.8040252 72.8582339,58.9280762 86.7667979,58.9280762 C90.4865302,58.9280762 95.6618099,58.36203 99.5432696,57.4725288 L99.5432696,29.2510819 L85.6347055,29.2510819 L85.6347055,33.4559966 L94.8531724,33.4559966 Z M125.823987,58.9280762 C140.056006,58.9280762 140.460324,54.4805702 140.460324,34.3454978 L140.460324,28.5233082 L125.985714,28.5233082 L125.985714,32.7282229 L135.851091,32.7282229 L135.851091,34.8306803 C135.851091,52.9441591 135.285045,54.6422977 125.743123,54.6422977 C115.069109,54.6422977 113.694425,51.8929304 113.694425,30.4640381 C113.694425,7.17527965 115.95861,6.28577846 128.411626,6.28577846 C131.08013,6.28577846 135.527636,6.85182468 139.166504,7.49873463 L139.166504,3.53641115 C135.770227,2.64690996 130.514084,2 126.470897,2 C111.996286,2 108.923464,6.04318723 108.923464,30.4640381 C108.923464,54.6422977 111.511104,58.9280762 125.823987,58.9280762 L125.823987,58.9280762 Z M188.897707,58.2811662 L180.649605,35.558454 C187.280432,33.0516779 187.927342,25.8548047 187.927342,19.7900238 C187.927342,9.84378323 186.471795,2.64690996 173.048413,2.64690996 L151.296066,2.64690996 L151.296066,58.2811662 L159.625032,58.2811662 L159.625032,36.8522739 L172.078048,36.8522739 L172.563231,36.8522739 L180.083559,58.2811662 L188.897707,58.2811662 Z M170.137319,29.7362644 L159.625032,29.7362644 L159.625032,9.84378323 L170.37991,9.84378323 C178.951467,9.84378323 179.598377,12.5931505 179.598377,19.7900238 C179.598377,26.8251696 178.870603,29.7362644 170.137319,29.7362644 L170.137319,29.7362644 Z M235.064167,44.5343297 C234.578984,36.2862277 232.072208,34.1029066 227.058656,32.8090867 L227.058656,32.4856317 C232.557391,30.9492206 235.549349,27.7146708 235.549349,17.7684302 C235.549349,7.82218961 232.233936,2.64690996 221.559922,2.64690996 L198.837209,2.64690996 L198.837209,58.2811662 L207.247039,58.2811662 L207.247039,36.6905464 L218.406235,36.6905464 C226.250019,36.6905464 226.49261,40.6528699 226.816065,46.0707408 L227.624702,58.2811662 L235.872804,58.2811662 L235.064167,44.5343297 Z M218.325372,29.4936732 L207.247039,29.4936732 L207.247039,9.84378323 L218.487099,9.84378323 C226.573474,9.84378323 227.058656,12.6740143 227.058656,19.7091601 C227.058656,26.4208509 225.926564,29.4936732 218.325372,29.4936732 L218.325372,29.4936732 Z M268.218302,58.9280762 C286.008326,58.9280762 289.808922,53.591069 289.808922,39.682505 C289.808922,25.9356684 283.744141,23.1863011 271.857171,23.1863011 C263.609069,23.1863011 260.61711,25.7739409 259.485018,27.0677608 L258.999835,27.0677608 C258.999835,15.0999266 260.374519,13.1591968 271.452852,13.1591968 C274.525674,13.1591968 280.752183,13.5635155 286.655236,14.2104254 L286.655236,3.77900238 C280.752183,2.7277737 273.312718,2 268.784348,2 C256.412195,2 250.185687,4.50677608 247.193729,11.9462406 C245.49559,16.232019 244.929544,22.2967999 244.929544,30.6257656 C244.929544,40.6528699 245.576454,47.2028332 247.274592,50.760838 C250.590006,57.7959838 256.73565,58.9280762 268.218302,58.9280762 L268.218302,58.9280762 Z M267.571392,47.9306069 C261.183156,47.9306069 259.161563,47.6880157 259.161563,40.2485512 C259.161563,35.881909 259.889336,34.1837703 267.571392,34.1837703 C274.849129,34.1837703 276.38554,34.8306803 276.38554,41.2189161 C276.38554,47.3645607 274.768265,47.9306069 267.571392,47.9306069 L267.571392,47.9306069 Z M320.051962,58.9280762 C339.459261,58.9280762 343.017266,51.9737942 343.017266,41.0571886 C343.017266,31.1109481 340.914809,23.3480286 326.03588,23.3480286 C321.750101,23.3480286 318.515551,23.833211 315.766184,24.8844397 L315.523593,24.5609847 C320.294554,15.9894278 329.513021,7.82218961 335.496938,3.21295617 L335.496938,2.64690996 L319.162461,2.64690996 C310.105722,9.84378323 297.005795,24.5609847 297.005795,39.035595 C297.005795,51.4077479 300.5638,58.9280762 320.051962,58.9280762 L320.051962,58.9280762 Z M320.051962,48.0114707 C313.340272,48.0114707 310.995223,47.6880157 310.995223,40.4102787 C310.995223,35.6393177 312.612498,34.1837703 320.051962,34.1837703 C327.653154,34.1837703 329.593884,34.6689528 329.593884,41.1380524 C329.593884,47.2028332 327.814882,48.0114707 320.051962,48.0114707 L320.051962,48.0114707 Z M371.40044,58.9280762 C383.287411,58.9280762 389.837374,56.5021639 393.476243,49.8713368 C395.659564,45.9090133 396.468201,39.4399137 396.468201,30.5449018 C396.468201,22.9437098 396.063882,17.2832477 394.689199,12.5931505 C392.182423,3.69813864 385.713323,2 371.966486,2 C353.529553,2 349.243774,8.14564459 349.243774,21.7307537 C349.243774,35.7201815 355.874601,38.5504126 366.791207,38.5504126 C373.826353,38.5504126 376.413992,35.881909 377.303494,34.7498166 L377.788676,34.7498166 C377.788676,44.0491472 376.494856,45.4238308 368.085027,45.4238308 C365.416523,45.4238308 359.351742,45.0195121 352.640052,44.4534659 L352.640052,57.0682101 C358.623969,58.1194387 366.467752,58.9280762 371.40044,58.9280762 L371.40044,58.9280762 Z M372.613396,25.3696222 C368.004163,25.3696222 366.952934,24.803576 366.952934,20.1943425 C366.952934,15.6659728 368.004163,15.1807904 372.613396,15.1807904 C376.252265,15.1807904 377.626949,15.1807904 377.626949,20.5177975 C377.626949,24.0758023 377.303494,25.3696222 372.613396,25.3696222 L372.613396,25.3696222 Z M406.980488,58.2811662 L428.247653,58.2811662 C440.377214,48.4966531 450,34.4263616 450,22.5393911 C450,10.8141482 446.603723,2 425.740877,2 C404.878031,2 401.724344,9.68205574 401.724344,20.2752063 C401.724344,29.2510819 403.179892,38.3078213 418.139685,38.3078213 C420.323006,38.3078213 423.234101,37.9035026 425.82174,37.3374564 L425.983468,37.8226389 C422.182872,44.1300109 414.58168,51.9737942 406.980488,57.71512 L406.980488,58.2811662 Z M425.740877,25.2887584 C420.323006,25.2887584 419.433505,24.7227122 419.433505,20.1943425 C419.433505,15.4233816 420.403869,15.1807904 425.740877,15.1807904 C429.864928,15.1807904 431.401339,15.2616541 431.401339,20.679525 C431.401339,23.9949385 431.320475,25.2887584 425.740877,25.2887584 L425.740877,25.2887584 Z"/>
</svg>
