<?xml version="1.0" standalone="no"?>
<!DOCTYPE svg PUBLIC "-//W3C//DTD SVG 20010904//EN"
 "http://www.w3.org/TR/2001/REC-SVG-20010904/DTD/svg10.dtd">
<svg version="1.0" xmlns="http://www.w3.org/2000/svg"
 width="260.000000pt" height="260.000000pt" viewBox="0 0 260.000000 260.000000"
 preserveAspectRatio="xMidYMid meet">
<metadata>
Created by potrace 1.11, written by Peter Selinger 2001-2013
</metadata>
<g transform="translate(0.000000,260.000000) scale(0.100000,-0.100000)"
fill="#000000" stroke="none">
<path d="M511 2585 c-78 -17 -188 -69 -256 -120 -114 -87 -211 -240 -240 -382
-18 -87 -13 -234 11 -313 70 -235 276 -420 507 -459 36 -6 -40 -9 -240 -10
l-293 -1 0 -325 0 -325 165 0 165 0 0 -325 0 -325 325 0 325 0 0 325 0 325
160 0 160 0 0 320 c0 176 2 320 5 320 3 0 149 -144 325 -320 l320 -320 0 -325
0 -325 325 0 325 0 0 1295 c0 712 -2 1295 -5 1295 -3 0 -149 -144 -325 -320
l-320 -320 -320 320 c-176 176 -322 320 -325 320 -3 0 -6 -127 -6 -282 -1
-156 -3 -274 -5 -263 -46 220 -153 373 -330 472 -127 71 -312 98 -453 68z
m789 -1005 l0 -280 -287 1 c-159 1 -277 4 -263 6 105 18 229 74 313 142 101
83 195 233 218 353 6 32 13 58 15 58 2 0 4 -126 4 -280z"/>
</g>
</svg>
