<?xml version="1.0" encoding="UTF-8"?><!DOCTYPE svg PUBLIC "-//W3C//DTD SVG 1.1//EN" "http://www.w3.org/Graphics/SVG/1.1/DTD/svg11.dtd"><svg xmlns="http://www.w3.org/2000/svg" xmlns:xlink="http://www.w3.org/1999/xlink"><symbol viewBox="0 0 800 600" id="archivo-terminal-4" xmlns="http://www.w3.org/2000/svg"><path d="M508.912 1203.144h237.146V950.856H888V757.32H746.058V173.256H637.006c-25.965 93.312-77.895 231.552-128.094 323.136V757.32H205.988C278.69 664.008 489.871 301.128 562.573-3h-244.07C244.07 292.488 135.018 541.32 0 757.32v193.536h508.912v252.288z" fill="#000" fill-rule="evenodd"/></symbol><symbol viewBox="0 0 800 600" id="archivo-terminal-a" xmlns="http://www.w3.org/2000/svg"><path d="M411.696 864.4c136.483 0 236.685-50.112 298.88-131.328h12.093c17.277 77.76 77.743 126.144 160.67 126.144 60.466 0 101.93-12.096 122.661-22.464V717.52h-62.195c-31.097 0-60.466-17.28-60.466-60.48V192.208C883.339 17.68 767.588-86 529.175-86c-217.68 0-367.984 89.856-367.984 252.288 0 15.552 0 27.648 1.727 38.016h172.763V181.84c0-58.752 38.008-124.416 186.584-124.416 150.303 0 183.128 63.936 183.128 152.064v89.856c-342.07 0-587.393 60.48-587.393 309.312C118 828.112 302.856 864.4 411.696 864.4zm51.83-145.152c-105.386 0-162.398-36.288-162.398-124.416 0-133.056 171.035-160.704 404.265-160.704v55.296c0 146.88-110.568 229.824-241.868 229.824z" fill="#000" fill-rule="evenodd"/></symbol><symbol viewBox="0 0 800 600" id="archivo-terminal-g" xmlns="http://www.w3.org/2000/svg"><path d="M316.025 838.304h366.219C891.264 838.304 969 698.336 969 575.648c0-115.776-81.19-221.184-231.478-221.184H373.031c-65.643 0-96.737-32.832-96.737-74.304s31.094-74.304 96.737-74.304h145.105C744.432 205.856 887.81 95.264 887.81-100c0-88.128-36.276-160.704-96.737-214.272 107.102-24.192 176.2-108.864 176.2-217.728H822.167c-10.365 57.024-41.459 114.048-131.286 157.248-51.823-20.736-110.557-31.104-172.745-31.104-226.295 0-367.946 110.592-367.946 305.856 0 100.224 50.096 181.44 122.649 235.008-48.369 12.096-152.016 48.384-152.016 150.336 0 65.664 44.914 112.32 95.01 139.968C162.283 444.32 69 489.248 69 618.848c0 172.8 136.468 219.456 247.025 219.456zM519.864 88.352c-145.106 0-217.659-69.12-217.659-188.352s72.553-188.352 217.659-188.352c145.105 0 217.658 69.12 217.658 188.352S664.97 88.352 519.864 88.352zm-190.02 627.264c-65.642 0-108.829-44.928-108.829-114.048 0-70.848 43.187-112.32 108.83-112.32h378.31c65.643 0 110.557 41.472 110.557 112.32 0 69.12-57.006 114.048-133.013 114.048H329.845z" fill="#000" fill-rule="evenodd"/></symbol><symbol viewBox="0 0 800 600" id="archivo-terminal-t" xmlns="http://www.w3.org/2000/svg"><path d="M500.847 1183.68c49.05 0 112.117-13.824 147.153-27.648v-141.696h-82.336c-50.803 0-75.328-27.648-75.328-77.76V423.36H648V254.016H490.336V0H322.16l-38.54 254.016H168V423.36h112.117v533.952c0 112.32 50.803 226.368 220.73 226.368z" fill="#000" fill-rule="evenodd"/></symbol><symbol viewBox="0 0 16 16" id="arrow" xmlns="http://www.w3.org/2000/svg"><path fill-rule="evenodd" d="M8 0L6.59 1.41 12.17 7H0v2h12.17l-5.58 5.59L8 16l8-8z"/></symbol><symbol viewBox="0 0 400 400" id="asap-arrow" xmlns="http://www.w3.org/2000/svg"><path fill-rule="evenodd" d="M199.653 333.244C125.733 333.244 66 273.511 66 199.591 66 125.702 125.733 66 199.653 66c73.858 0 133.623 59.702 133.623 133.591 0 73.92-59.765 133.653-133.623 133.653zm55.97-97.44c4.106-3.733 5.6-7.093 5.6-12.32v-77.622c0-3.702-2.459-6.346-5.974-6.346l-77.996.373c-4.853.031-8.96 1.867-12.693 5.227l-14.218 13.875c-1.835 1.773-2.582 2.893-2.582 4.013 0 1.867 2.24 1.867 4.48 1.867h66.08l-84.373 84c-1.4 1.4-2.24 2.987-2.24 4.48 0 2.645 1.493 4.853 4.48 7.84l3.733 3.733c3.764 3.765 5.849 4.916 8.027 4.916 1.773 0 3.422-1.058 5.04-2.676l83.626-83.626-.746 64.96c0 3.142.435 4.106 1.866 4.106.716 0 1.743-.653 2.987-1.866l14.902-14.934z"/></symbol><symbol viewBox="0 0 400 400" id="asap-elevator" xmlns="http://www.w3.org/2000/svg"><path fill-rule="evenodd" d="M176.324 43.135c-1.377-2.41-2.754-3.126-4.13-3.126-1.377 0-2.782.717-4.159 3.126l-23.689 41.499c-1.262 2.18-2.093 4.244-2.093 5.62 0 1.721 1.032 3.098 4.818 3.098h50.217c3.126 0 5.191-1.377 5.191-3.442 0-1.032-.344-1.72-1.377-3.441l-24.778-43.334zm60.542 47.12l24.778-43.335c1.033-1.72 1.377-2.409 1.377-3.441 0-2.065-2.065-3.442-5.162-3.442H207.64c-3.785 0-4.818 1.377-4.818 3.098 0 1.376.344 2.753 1.033 3.785l24.75 43.335c1.376 2.409 2.753 3.126 4.13 3.126 1.376 0 2.753-.717 4.13-3.126zm71.956 28.593H95.792c-9.636 0-13.766 4.13-13.766 13.737V345.96c0 9.636 4.13 13.766 13.766 13.766h213.03c9.607 0 13.737-4.13 13.737-13.766V132.585c0-9.607-4.13-13.737-13.737-13.737zM108.469 336.35h187.62v-191.75h-187.62v191.75zm38.258-176.234c-4.474 0-8.604 2.753-8.604 6.883 0 1.262.459 7.686.688 11.013.2 3.327 1.233 4.302 2.38 5.191v1.033c0 4.13-2.724 7.57-7.542 8.26-5.134.745-6.883 3.785-7.227 7.226-1.95 16.634-5.85 47.292-5.85 49.902 0 2.065 2.064 3.786 5.161 3.786-.803 4.818-1.72 9.607-1.72 10.669 0 1.72 2.409 2.064 5.85 2.064l2.065 51.939c0 2.753 2.065 3.785 6.195 3.785 4.101 0 6.854-1.376 6.854-3.785v-51.939h3.442l.028 51.91c0 2.409 2.41 3.843 6.54 3.843 4.445 0 6.51-1.09 6.51-3.843l2.064-51.91c3.528-.028 5.88-.344 5.88-1.778 0-.602-.717-6.51-1.406-10.984 2.754 0 5.163-1.72 5.163-3.785 0-2.639-3.9-33.268-5.851-49.902-.344-3.442-2.065-6.54-7.227-7.228-5.162-.688-7.916-4.13-7.916-8.26v-1.032c.689-.344 2.151-1.405 2.41-5.162.229-3.327.688-9.75.688-11.013 0-4.1-4.13-6.854-8.575-6.854v-.029zm66.765 92.261c-18.556 1.606-32.694 16.29-32.694 34.731 0 19.301 15.802 34.76 34.759 34.76 19.272 0 35.075-15.459 35.075-34.76 0-1.205-.259-3.355-.689-5.88h8.948l16.175 31.318c.344.689 1.377 1.033 2.065 1.033 1.75 0 5.937-1.979 7.227-3.097.574-.488 1.033-.86 1.033-1.693 0-.688-.689-2.409-2.065-5.85l-14.799-34.042c-1.72-4.13-4.13-5.163-8.26-5.163h-15.2l-6.796-28.564c-1.492-6.166-3.126-8.948-5.88-11.013-2.409-2.409-3.785-4.474-3.785-8.26v-1.376c.688-.344 3.441-2.41 3.441-5.162v-11.357c0-4.13-4.474-7.228-8.575-7.228-4.13 0-8.603 3.098-8.603 7.228v11.012c0 3.786 2.409 5.163 3.097 5.507v3.097c0 3.098-1.807 7.514-3.04 10.525-1.864 4.56-1.778 9.178-1.778 15.975 0 1.692.23 5.506.344 8.26zm0 6.166v15.487c0 3.786 2.753 7.227 7.571 7.227h22.37c.688 2.065.688 3.786.688 5.851 0 15.86-12.733 28.593-28.564 28.593a28.507 28.507 0 01-28.593-28.593c0-14.454 9.98-26.5 26.528-28.565z"/></symbol><symbol viewBox="0 0 400 400" id="asap-object" xmlns="http://www.w3.org/2000/svg"><path fill-rule="evenodd" d="M253.228 77.8v6.445h12.257c8.71 0 12.58 3.222 12.58 7.734v226.184c0 6.418-3.225 9.318-9.354 9.318H134.257c-9.354 0-12.257-2.9-12.257-9.318V91.979c0-4.512 3.548-7.734 12.257-7.734h90.962V77.8c0-2.578 1.586-5.8 5.457-5.8h17.069c3.87 0 5.483 3.222 5.483 5.8zM147.133 224.74h106.095V109.38H147.133v115.36zm22.552 19.013h-17.069c-3.87 0-5.456.644-5.456 3.222v6.096c0 2.578 1.586 3.195 5.456 3.195h17.07c3.87 0 5.483-.617 5.483-3.195v-6.096c0-2.578-1.613-3.222-5.484-3.222zm39.03 0h-17.069c-3.87 0-5.457.644-5.457 3.222v6.096c0 2.578 1.586 3.195 5.457 3.195h17.069c3.87 0 5.483-.617 5.483-3.195v-6.096c0-2.578-1.612-3.222-5.483-3.222zm39.03 0h-17.07c-3.87 0-5.456.644-5.456 3.222v6.096c0 2.578 1.586 3.195 5.457 3.195h17.069c3.87 0 5.483-.617 5.483-3.195v-6.096c0-2.578-1.613-3.222-5.483-3.222zm-78.06 24.812h-17.069c-3.87 0-5.456.645-5.456 3.222v6.096c0 2.578 1.586 3.196 5.456 3.196h17.07c3.87 0 5.483-.618 5.483-3.196v-6.096c0-2.577-1.613-3.222-5.484-3.222zm39.03 0h-17.069c-3.87 0-5.457.645-5.457 3.222v6.096c0 2.578 1.586 3.196 5.457 3.196h17.069c3.87 0 5.483-.618 5.483-3.196v-6.096c0-2.577-1.612-3.222-5.483-3.222zm39.03 0h-17.07c-3.87 0-5.456.645-5.456 3.222v6.096c0 2.578 1.586 3.196 5.457 3.196h17.069c3.87 0 5.483-.618 5.483-3.196v-6.096c0-2.577-1.613-3.222-5.483-3.222zm-78.06 24.812h-17.069c-3.87 0-5.456.645-5.456 3.223v6.095c0 2.578 1.586 3.196 5.456 3.196h17.07c3.87 0 5.483-.618 5.483-3.196V296.6c0-2.578-1.613-3.223-5.484-3.223zm39.03 0h-17.069c-3.87 0-5.457.645-5.457 3.223v6.095c0 2.578 1.586 3.196 5.457 3.196h17.069c3.87 0 5.483-.618 5.483-3.196V296.6c0-2.578-1.612-3.223-5.483-3.223zm39.03 0h-17.07c-3.87 0-5.456.645-5.456 3.223v6.095c0 2.578 1.586 3.196 5.457 3.196h17.069c3.87 0 5.483-.618 5.483-3.196V296.6c0-2.578-1.613-3.223-5.483-3.223z"/></symbol><symbol viewBox="0 0 400 400" id="asap-people" xmlns="http://www.w3.org/2000/svg"><path fill-rule="evenodd" d="M200.034 40c-9 0-16.931 5.505-16.931 13.763 0 3.069.692 14.452 1.038 21.678.346 7.226 3.807 9.634 4.846 10.322v2.065c0 7.914-5.538 14.452-15.23 16.172-10.124 1.778-13.643 7.226-14.681 14.452C155.384 151.254 148 212.272 148 217.29c0 3.814 4.153 6.796 9.691 6.796-1.586 11.183-3.143 19.928-3.143 21.706 0 3.47 4.759 4.1 11.797 4.1l3.807 102.538c.346 5.161 4.153 7.57 12.49 7.57 8.335 0 13.873-2.753 13.873-7.57V249.892h6.663V352.43c0 4.817 5.163 7.57 13.47 7.57 8.653 0 12.431-2.409 12.778-7.57l4.153-102.538c7.269 0 11.768-.372 11.768-4.473 0-1.548-1.413-11.47-2.769-21.333 5.538 0 9.692-3.297 9.692-6.767 0-5.018-7.384-66.065-11.076-98.867-1.039-7.226-4.558-12.732-14.537-14.452-10.038-1.72-15.922-8.258-15.922-16.172v-2.065c1.384-.688 4.846-3.096 5.192-10.322.346-7.226 1.038-18.61 1.038-21.678 0-8.258-7.932-13.763-16.931-13.763z"/></symbol><symbol viewBox="0 0 400 400" id="asap-signal" xmlns="http://www.w3.org/2000/svg"><path fill-rule="evenodd" d="M199.985 60c77.408 0 139.985 62.578 139.985 139.985 0 77.44-62.577 139.985-139.985 139.985C122.578 339.97 60 277.425 60 199.985 60 122.578 122.578 60 199.985 60m0 30.898c-60.198 0-109.087 48.889-109.087 109.087 0 60.231 48.889 109.12 109.087 109.12 60.199 0 109.088-48.889 109.088-109.12 0-60.198-48.89-109.087-109.088-109.087m46.542 34.418h-7.822c-9.354 0-13.265 2.346-13.265 7.04v52.017h-50.91v-52.017c0-4.694-3.91-7.04-13.265-7.04h-7.822c-9.354 0-13.656 2.346-13.656 7.04v136.856c0 4.66 4.302 7.04 13.656 7.04h7.822c9.354 0 13.265-2.38 13.265-7.04v-55.538h50.91v55.538c0 4.66 3.911 7.04 13.265 7.04h7.822c9.354 0 13.657-2.38 13.657-7.04V132.356c0-4.694-4.303-7.04-13.657-7.04"/></symbol><symbol viewBox="0 0 800 600" id="asap-terminal-a" xmlns="http://www.w3.org/2000/svg"><path fill="none" d="M144 152c0 86 42 138 128 138 66 0 124-34 162-92V0H217.6C172 30.5 144 78.3 144 152z"/><path d="M434 0v198c-38 58-96 92-162 92-86 0-128-52-128-138 0-73.7 28-121.5 73.6-152H0v387.8C48.8 443.7 121 474 212 474c114 0 192-58 242-122 12 54 24 110 70 110 36 0 160-12 160-54 0-24-24-86-24-268V0H434z"/></symbol><symbol viewBox="0 0 800 600" id="asap-terminal-g" xmlns="http://www.w3.org/2000/svg"><path fill="none" d="M122 280c-50.8 0-95 12.4-122 56.7V600h244.8C263 571.6 274 530 274 470c0-156-70-190-152-190z"/><path d="M122 280c82 0 152 34 152 190 0 60-10.9 101.6-29.2 130h203.1c11.9-38.3 18.1-81.1 18.1-128 0-66-16-126-42-170l4-4c24 4 56 4 92 4 30 0 42-20 42-68v-28c0-50-14-72-46-72H234c-36-8-72-14-110-14-45.1 0-86.6 5.7-124 16.8v199.9C27 292.4 71.2 280 122 280z"/><path fill="#FFF" stroke="#000" stroke-miterlimit="10" d="M-.1 600l.1.1-.1-.1h0z"/></symbol><symbol viewBox="0 0 800 600" id="asap-terminal-l" xmlns="http://www.w3.org/2000/svg"><path fill-rule="evenodd" d="M442 455c58 0 166-16 166-76 0-20-18-118-50-118-12 0-32 10-62 10-40 0-64-22-64-102v-590h106c34 0 48-24 48-78v-28c0-54-14-78-48-78H432v-202c0-34-24-52-78-52h-38c-54 0-80 18-84 52l-26 202h-46c-34 0-48 24-48 78v28c0 54 14 78 48 78h46v602c0 210 118 274 236 274z"/></symbol><symbol viewBox="0 0 800 600" id="asap-terminal-r" xmlns="http://www.w3.org/2000/svg"><path d="M569 122c-80 0-140 64-188 152-12-52-18-136-74-136-36 0-158 12-158 54 0 24 24 86 24 266v142h224V446c14-42 68-112 136-112 50 0 70 20 96 20 28 0 44-102 44-140 0-42-24-92-104-92z"/></symbol><symbol viewBox="0 0 400 400" id="asap-transport" xmlns="http://www.w3.org/2000/svg"><path fill-rule="evenodd" d="M316.924 266.482v-23.787c0-3.022-.335-7.723-.67-10.774l-13.04-147.086c-.67-8.06-1.676-9.375-10.723-9.375H108.836c-11.365 0-12.37 1.007-13.04 9.375L83.09 231.92c-.335 3.05-.67 7.752-.67 10.774v23.787c0 2.715.335 4.394.977 7.08l5.054 20.82v21.157c0 7.024 4.664 10.382 18.067 10.382h16.754c13.04 0 16.727-3.358 16.727-14.412h119.346c0 11.054 4.328 14.412 17.062 14.412h17.424c12.063 0 17.061-3.358 17.061-10.382v-21.156l5.027-21.157c.67-2.35 1.005-4.03 1.005-6.744zm-91.45-164.857c0 2.715-2.011 3.722-6.702 3.722h-38.535c-4.356 0-6.367-1.007-6.367-3.722v-6.044c0-2.379 2.01-3.722 6.367-3.722h38.535c4.691 0 6.702 1.343 6.702 3.722v6.044zm63.024 141.07H109.506l8.042-119.941h162.545l8.405 119.941zm-178.322 30.531c0-7.08 5.362-12.453 12.063-12.453 7.037 0 12.398 5.373 12.398 12.453 0 6.717-5.36 12.118-12.398 12.118-6.701 0-12.063-5.401-12.063-12.118zm179.997 0c0 6.717-5.724 12.118-12.426 12.118s-12.063-5.401-12.063-12.118c0-7.08 5.361-12.453 12.063-12.453 6.702 0 12.426 5.373 12.426 12.453z"/></symbol><symbol viewBox="0 0 1561 2000" id="et" xmlns="http://www.w3.org/2000/svg"><path fill-rule="evenodd" d="M0 1450.535c0-58.824 9.147-112.077 27.442-159.76 18.295-47.683 44.175-92.691 77.64-135.026 33.467-42.336 73.402-82.665 119.808-120.99 46.407-38.324 97.274-77.094 152.605-116.31-33.02-40.107-62.916-78.431-89.689-114.973-26.773-36.542-49.752-72.86-68.94-108.957-19.187-36.097-33.911-72.415-44.174-108.958-10.263-36.542-15.395-73.974-15.395-112.299 0-75.758 11.602-143.048 34.805-201.872 23.203-58.823 56.222-108.288 99.059-148.395 42.836-40.108 94.15-70.633 153.943-91.578C506.896 10.472 573.38 0 646.56 0c71.394 0 135.648 11.14 192.763 33.422 57.115 22.282 105.752 52.14 145.911 89.573 40.16 37.433 70.948 81.105 92.366 131.016 21.418 49.91 32.127 102.495 32.127 157.754 0 47.237-6.47 90.24-19.41 129.01-12.94 38.77-31.012 75.312-54.215 109.626-23.203 34.314-51.09 66.4-83.664 96.257S884.39 806.15 846.016 835.56l-147.25 108.29 433.718 517.379c28.558-54.368 50.868-113.859 66.932-178.476 16.063-64.617 24.095-133.912 24.095-207.888h223.552c0 111.41-13.386 214.35-40.16 308.824-26.772 94.474-68.27 180.035-124.492 256.684l278.436 332.888H1263.67l-129.848-153.743c-33.912 30.303-70.947 56.818-111.106 79.545-40.16 22.728-81.88 41.444-125.162 56.15-43.283 14.706-87.68 25.847-133.194 33.422-45.514 7.576-90.135 11.364-133.864 11.364-97.274 0-184.954-13.592-263.041-40.775-78.087-27.184-144.35-65.063-198.787-113.637-54.438-48.574-96.159-106.506-125.162-173.797C14.502 1604.501 0 1530.75 0 1450.535zm630.496 347.593c64.255 0 127.17-12.923 188.748-38.77 61.577-25.847 118.692-62.834 171.345-110.962l-475.215-568.182-56.223 41.444c-48.19 35.65-86.341 70.187-114.453 103.61-28.111 33.422-49.306 64.393-63.585 92.914-14.279 28.52-23.426 54.144-27.442 76.871-4.016 22.728-6.024 41.221-6.024 55.482 0 47.237 7.809 92.023 23.426 134.358 15.618 42.335 39.267 79.323 70.948 110.963 31.681 31.64 71.616 56.595 119.808 74.866 48.19 18.271 104.413 27.406 168.667 27.406zM406.945 465.241c0 49.02 14.278 100.044 42.836 153.075 28.557 53.03 66.931 108.956 115.122 167.78l140.557-98.93c27.665-18.717 52.43-37.433 74.294-56.15 21.864-18.717 40.382-38.77 55.553-60.16 15.172-21.39 26.55-44.786 34.135-70.188 7.586-25.4 11.379-55.035 11.379-88.903 0-26.738-5.132-52.585-15.394-77.54-10.263-24.956-25.434-47.015-45.514-66.177-20.08-19.162-44.844-34.76-74.294-46.791-29.45-12.032-62.916-18.048-100.398-18.048-39.266 0-73.624 6.907-103.074 20.721-29.45 13.815-54.215 32.754-74.295 56.819-20.08 24.064-35.25 51.916-45.513 83.556-10.263 31.64-15.394 65.285-15.394 100.936z"/></symbol><symbol viewBox="0 0 800 600" id="faustina-final-a" xmlns="http://www.w3.org/2000/svg"><path fill-rule="evenodd" d="M271 321h8c4 42 22 92 96 92 108 0 200-40 200-40v-76l-142-28v-642c0-126-88-230-262-230-108 0-408 84-408 250 0 56 46 92 92 92s64-14 64-14l30-184s54-16 124-16c126 0 196 50 196 168v150L89-131C-151-97-269 5-269 171c0 132 80 248 284 248 128 0 234-74 256-98zm-2-382v318s-78 36-178 36c-120 0-184-70-184-152C-93 13 21-43 269-61z"/></symbol><symbol viewBox="0 0 800 600" id="faustina-terminal-a" xmlns="http://www.w3.org/2000/svg"><path d="M800 148.4C756.5 111.6 694.1 89 613 89c-108 0-408 84-408 250 0 56 46 92 92 92s64-14 64-14l30-184s54-16 124-16c126 0 196 50 196 168v150l-180 26c-60.9 8.6-114 21.7-159.3 39H800V148.4z"/></symbol><symbol viewBox="0 0 800 600" id="faustina-terminal-d" xmlns="http://www.w3.org/2000/svg"><path fill="none" d="M89 295c90 0 178-34 216-52V0H0v283.6c25.9 7.6 55.4 11.4 89 11.4z"/><path d="M469 277V0H305v243c-38 18-126 52-216 52-33.6 0-63.1-3.8-89-11.4v150.6c8.9.6 18 .9 27 .9 144 0 242-78 278-116l8 2 26 104 272-40v-78L469 277z"/></symbol><symbol viewBox="0 0 800 600" id="faustina-terminal-i" xmlns="http://www.w3.org/2000/svg"><path d="M320 0v328l-160 28v82h480v-82l-156-28V0zM382-698c78 0 122-64 122-136 0-74-44-120-112-120-72 0-122 62-122 132 0 74 44 124 112 124z"/></symbol><symbol viewBox="0 0 800 600" id="faustina-terminal-l" xmlns="http://www.w3.org/2000/svg"><path d="M540 204l-46-18-278 44v82l160 28v260h164z"/></symbol><symbol viewBox="0 0 800 600" id="faustina-terminal-r" xmlns="http://www.w3.org/2000/svg"><path d="M602 325l-32-110-288 54v82l156 28v221h164V389c10-2 58-14 90-14s40 2 72 10l36 9.4v-188C712.3 226 602 325 602 325z"/></symbol><symbol viewBox="0 0 800 600" id="faustina-terminal-s" xmlns="http://www.w3.org/2000/svg"><path d="M322 247l28 160h82l28-250c-36-20-160-54-286-54-63.4 0-122.6 8.9-174 26.9v128C29.6 230.2 79.7 217 158 217c78 0 164 30 164 30zM0 446.6V600h384.9C265.8 516.9 78.1 517.9 0 446.6z"/></symbol><symbol viewBox="0 0 800 600" id="faustina-terminal-v" xmlns="http://www.w3.org/2000/svg"><path d="M501 372v-28l128-28v-84H191v88l112 24 104 256h178.9z"/></symbol><symbol viewBox="0 0 800 600" id="manuale-terminal-a" xmlns="http://www.w3.org/2000/svg"><path d="M394.178 167.014c92.055 0 114.411 43.397 114.411 110.465v110.466l-198.575 35.507C164.04 449.753 143 543.123 143 606.247 143 686.466 191.658 768 283.712 768c85.48 0 160.439-32.877 227.507-81.534 9.206 48.657 44.713 72.329 86.795 72.329 35.507 0 86.794-5.26 138.082-21.042v-36.821L617.74 677.26V239.342C617.74 130.192 538.836 96 417.85 96c-89.425 0-173.59 21.041-247.234 48.658l22.357 153.863h39.452l31.561-113.096c40.767-11.836 90.74-18.411 130.192-18.411zm-22.356 301.15l136.767-22.356v192c-42.082 22.356-105.205 48.658-155.178 48.658-55.233 0-96-24.987-96-99.945 0-52.603 26.301-103.89 114.41-118.357z" fill="#000" fill-rule="evenodd"/></symbol><symbol viewBox="0 0 800 600" id="manuale-terminal-g" xmlns="http://www.w3.org/2000/svg"><path d="M335.522 1008c249.808 0 354.226-113.67 354.226-215.443 0-112.348-83.27-137.461-204.87-137.461H282.652c-29.078 0-40.974-23.792-40.974-42.296 0-17.183 10.574-37.009 29.079-64.765 5.286 2.643 47.582 10.574 92.521 10.574 191.652 0 257.74-107.061 257.74-223.374 0-48.905-18.505-105.74-54.192-140.105h141.426V96L523.21 146.226c-39.652-21.148-84.592-35.687-149.357-35.687-165.217 0-247.165 107.061-247.165 224.696 0 76.66 19.826 149.356 85.913 192.974-43.617 44.939-84.591 92.521-84.591 137.46 0 31.722 13.217 62.122 44.939 75.34C109.504 789.913 91 840.139 91 879.79 91 943.235 122.722 1008 335.522 1008zm40.974-518.122c-88.557 0-117.635-60.8-117.635-154.643 0-91.2 25.113-155.965 113.67-155.965 87.234 0 118.956 64.765 118.956 155.965 0 93.843-26.435 154.643-114.991 154.643zm-33.044 445.426c-105.739 0-134.817-27.756-134.817-84.591 0-34.365 13.217-66.087 40.974-100.452h235.27c58.156 0 88.556 9.252 88.556 60.8 0 72.696-64.765 124.243-229.983 124.243z" fill="#000" fill-rule="evenodd"/></symbol><symbol viewBox="0 0 800 600" id="manuale-terminal-r" xmlns="http://www.w3.org/2000/svg"><path d="M508.168 211.428l27.585 120.675h95.89L656.6 97.312C648.719 96 629.015 96 618.507 96c-60.424 0-137.923 26.234-195.72 64.272V99.935h-59.11L143 151.091v62.96l102.457 14.429v438.102L143 692.816V758.4h432.16v-65.584l-152.373-26.234V232.415c23.644-14.428 56.483-20.987 85.381-20.987z" fill="#000" fill-rule="evenodd"/></symbol><symbol viewBox="0 0 800 600" id="manuale-terminal-t" xmlns="http://www.w3.org/2000/svg"><path d="M591.567 874.718v-55.34L437.524 790.39V326.585L610 337.125v-94.868H437.524V96h-69.781l-69.78 131.763L190 271.244v56.658h94.796v470.393c0 51.388 18.433 104.093 113.23 104.093 44.764 0 138.244-11.859 193.541-27.67z" fill="#000" fill-rule="evenodd"/></symbol><symbol viewBox="0 0 450 60" id="saira-stylistic" xmlns="http://www.w3.org/2000/svg"><path fill-rule="evenodd" d="M26.2 58.281h2.992L16.254 2.647h-3.316L0 58.28h2.911l3.962-17.547h15.284L26.2 58.28zM14.717 8.388l6.793 29.596H7.52l6.793-29.596h.404zm42.696 49.893h2.911v-31.86C60.324 7.014 59.354 2 48.034 2 36.63 2 35.66 7.014 35.66 26.42v31.861h2.911V36.125h18.841V58.28zm0-34.286v9.38H38.572v-9.38c0-15.445.566-19.246 9.461-19.246 8.814 0 9.38 3.801 9.38 19.246zm37.44 9.461v20.459c-1.94.485-5.499.808-8.086.808-10.917 0-12.21-3.639-12.21-24.259 0-23.45 2.344-24.178 14.474-24.178 2.588 0 7.197.566 10.35 1.213V3.536C96.31 2.646 91.054 2 86.849 2 72.697 2 69.785 6.528 69.785 30.464c0 24.34 3.073 28.464 16.982 28.464 3.72 0 8.895-.566 12.776-1.455V29.25H85.635v4.205h9.218zm30.971 25.472c14.232 0 14.636-4.447 14.636-24.583v-5.822h-14.474v4.205h9.865v2.103c0 18.113-.566 19.811-10.108 19.811-10.674 0-12.049-2.75-12.049-24.178 0-23.289 2.265-24.178 14.718-24.178 2.668 0 7.116.566 10.755 1.213V3.536C135.77 2.646 130.514 2 126.47 2c-14.475 0-17.548 4.043-17.548 28.464 0 24.178 2.588 28.464 16.901 28.464zm63.074-.647l-8.248-22.723c6.63-2.506 7.277-9.703 7.277-15.768 0-9.946-1.455-17.143-14.879-17.143h-21.752V58.28h8.329V36.852H172.563l7.52 21.43h8.815zm-18.76-28.545h-10.513V9.844h10.755c8.571 0 9.218 2.75 9.218 9.946 0 7.035-.727 9.946-9.46 9.946zm64.926 14.798c-.485-8.248-2.992-10.431-8.005-11.725v-.323c5.498-1.537 8.49-4.771 8.49-14.718 0-9.946-3.315-15.121-13.99-15.121h-22.722V58.28h8.41v-21.59h11.16c7.843 0 8.086 3.962 8.41 9.38l.808 12.21h8.248l-.809-13.747zm-16.739-15.04h-11.078V9.844h11.24c8.086 0 8.572 2.83 8.572 9.865 0 6.712-1.132 9.785-8.734 9.785zm49.893 29.434c17.79 0 21.59-5.337 21.59-19.245 0-13.747-6.064-16.497-17.95-16.497-8.249 0-11.24 2.588-12.373 3.882H259c0-11.968 1.375-13.909 12.453-13.909 3.073 0 9.3.405 15.202 1.051V3.78C280.752 2.728 273.313 2 268.785 2c-12.373 0-18.6 2.507-21.591 9.946-1.698 4.286-2.264 10.35-2.264 18.68 0 10.027.646 16.577 2.345 20.135 3.315 7.035 9.46 8.167 20.943 8.167zm-.647-10.997c-6.388 0-8.41-.243-8.41-7.682 0-4.367.728-6.065 8.41-6.065 7.278 0 8.815.647 8.815 7.035 0 6.146-1.618 6.712-8.815 6.712zm52.481 10.997c19.407 0 22.965-6.954 22.965-17.87 0-9.947-2.102-17.71-16.981-17.71-4.286 0-7.52.485-10.27 1.536l-.242-.323c4.77-8.572 13.989-16.739 19.973-21.348v-.566h-16.335c-9.056 7.197-22.156 21.914-22.156 36.389 0 12.372 3.558 19.892 23.046 19.892zm0-10.917c-6.712 0-9.057-.323-9.057-7.6 0-4.772 1.617-6.227 9.057-6.227 7.601 0 9.542.485 9.542 6.954 0 6.065-1.78 6.873-9.542 6.873zM371.4 58.928c11.887 0 18.437-2.426 22.076-9.057 2.184-3.962 2.992-10.431 2.992-19.326 0-7.601-.404-13.262-1.779-17.952C392.182 3.698 385.713 2 371.966 2c-18.436 0-22.722 6.146-22.722 19.73 0 13.99 6.63 16.82 17.547 16.82 7.035 0 9.623-2.668 10.512-3.8h.486c0 9.3-1.294 10.674-9.704 10.674-2.668 0-8.733-.404-15.445-.97v12.614c5.984 1.051 13.828 1.86 18.76 1.86zm1.213-33.558c-4.609 0-5.66-.566-5.66-5.176 0-4.528 1.051-5.013 5.66-5.013 3.64 0 5.014 0 5.014 5.337 0 3.558-.324 4.852-5.014 4.852zM406.98 58.28h21.268C440.378 48.497 450 34.426 450 22.54 450 10.814 446.604 2 425.74 2c-20.862 0-24.016 7.682-24.016 18.275 0 8.976 1.456 18.033 16.416 18.033 2.183 0 5.094-.404 7.682-.97l.161.485c-3.8 6.307-11.401 14.15-19.003 19.892v.566zm18.76-32.992c-5.417 0-6.306-.566-6.306-5.095 0-4.77.97-5.013 6.307-5.013 4.124 0 5.66.08 5.66 5.499 0 3.315-.08 4.609-5.66 4.609z"/></symbol></svg>